<svg xmlns="http://www.w3.org/2000/svg" width="33" height="33" viewBox="0 0 33 33" fill="none">
  <path d="M31.2009 0.314699H2.21314C1.22052 0.315196 0.415828 1.12039 0.416077 2.11326V31.101C0.416574 32.0936 1.22176 32.8983 2.21463 32.8981H31.2009C32.194 32.8983 32.9992 32.0934 32.9995 31.1002C32.9995 31.1 32.9995 31.1005 32.9995 31.1002V2.11177C32.999 1.11914 32.1938 0.31445 31.2009 0.314699Z" fill="#4267B2"/>
  <path d="M22.9127 32.8981V20.2975H27.1606L27.797 15.3654H22.9127V12.2242C22.9127 10.7996 23.3082 9.82883 25.3511 9.82883H27.9402V5.4295C27.4897 5.3696 25.9442 5.2356 24.1459 5.2356C20.3912 5.2356 17.8215 7.52661 17.8215 11.7358V15.3655H13.5895V20.2975H17.8215V32.8981L22.9127 32.8981Z" fill="white"/>
</svg>