<svg xmlns="http://www.w3.org/2000/svg" width="40" height="40" viewBox="0 0 40 40" fill="none">
  <path d="M37.8175 0.381837H2.66187C1.45803 0.38244 0.482121 1.35896 0.482422 2.56309V37.7189C0.483025 38.9227 1.45954 39.8986 2.66367 39.8983H37.8176C39.022 39.8986 39.9985 38.9224 39.9988 37.718C39.9988 37.7177 39.9988 37.7183 39.9988 37.718V2.56129C39.9982 1.35745 39.0217 0.381536 37.8175 0.381837Z" fill="#2699FB"/>
  <path d="M27.7657 39.8984V24.6167H32.9175L33.6893 18.6351H27.7657V14.8256C27.7657 13.0977 28.2454 11.9204 30.723 11.9204H33.863V6.58502C33.3167 6.51237 31.4423 6.34985 29.2614 6.34985C24.7078 6.34985 21.5913 9.12836 21.5913 14.2332V18.6352H16.4588V24.6167H21.5913V39.8985L27.7657 39.8984Z" fill="white"/>
</svg>