<svg xmlns="http://www.w3.org/2000/svg" width="134" height="18" viewBox="0 0 134 18" fill="none">
  <path d="M63.4737 12.1818V11.4267C63.4737 11.4267 63.4737 10.5453 64.5285 10.4983H72.3291V7.21644L64.5079 7.23407C64.5079 7.23407 63.6001 7.23407 63.6001 6.35265V5.08046C63.5857 4.83467 63.6802 4.59502 63.8585 4.42522C64.0368 4.25542 64.2808 4.17269 64.5256 4.19903C65.0486 4.19903 73.2223 4.19903 73.2223 4.19903L73.3104 0.7409H61.6316C61.0733 0.7409 59.3869 1.03471 59.3869 3.1472V14.9789C59.3869 14.9789 59.093 16.965 61.8078 16.965H73.334V13.122H64.4404C64.4404 13.122 63.4737 13.0779 63.4737 12.1936M54.8122 0.735023H52.3325C51.6656 0.75559 51.216 1.56356 51.216 1.56356L46.6444 8.90879C46.6444 8.90879 46.377 9.32012 46.1713 9.32012C45.9657 9.32012 45.6866 8.89997 45.6866 8.89997C45.6866 8.89997 41.2148 2.04835 40.9092 1.55475C40.3804 0.673325 39.8016 0.723274 39.8016 0.723274H37.7655C35.8058 0.723274 35.8028 2.97091 35.8028 2.97091L35.7147 16.9356L40.2247 16.8945V6.87856C40.2247 6.87856 45.334 15.969 45.7218 16.6477C45.9245 16.9415 46.045 17.0561 46.1802 17.0561C46.3153 17.0561 46.474 16.968 46.6679 16.6477C46.6679 16.6242 52.2062 6.47311 52.2062 6.47311L52.1915 16.9973H56.5545C56.5545 16.9973 56.5927 5.71215 56.5927 3.25885C56.5927 0.805544 54.8123 0.73209 54.8123 0.73209M15.0188 8.32998H9.60684C9.60684 8.32998 9.62447 8.50627 9.65972 8.71193C10.1711 8.81395 10.582 9.19423 10.7233 9.69619C10.7439 9.88423 10.7586 10.6658 10.7586 12.0026C10.7586 13.075 10.1709 13.1455 10.1709 13.1455H6.70988C4.68554 13.1455 4.47988 11.4238 4.47988 11.4238V6.62883C4.47988 4.36356 6.65407 4.35181 6.65407 4.35181H14.9953V0.737961C14.9953 0.737961 9.32771 0.688015 5.13507 0.688015C0.942421 0.688015 0.069809 3.71425 0.069809 4.91298V10.8655C0.069809 16.9503 4.56509 16.9797 4.56509 16.9797H12.6683C15.1892 16.9797 15.3538 14.7144 15.3538 14.7144C15.3538 14.7144 15.3244 9.71969 15.3538 9.05568C15.3831 8.39168 15.0071 8.32997 15.0071 8.32997M26.3657 0.69095H23.7537C23.1441 0.667023 22.5896 1.04184 22.3846 1.61644L16.5231 17.0326L21.224 16.9856L22.3376 13.5392C22.3376 13.5392 28.1814 13.5627 28.0815 13.5568C28.6692 15.3461 29.1334 16.9533 29.1334 16.9533H34.087C34.087 16.9533 28.2402 2.25108 27.7877 1.42253C27.3353 0.593996 26.3686 0.69389 26.3686 0.69389M23.3718 10.1839L25.1552 5.03051L26.8534 10.1898L23.3718 10.1839ZM86.6729 13.1808H81.3373C80.4118 13.1808 80.3765 12.22 80.3765 12.22V0.782034H76.0194C76.0194 0.782034 76.084 13.3365 76.084 15.2697C76.084 17.1178 77.5295 16.965 77.7763 16.965H88.9058C87.4809 16.965 86.6729 13.2072 86.6729 13.2072M100.297 0.782034H93.3041C92.4227 0.782034 88.8412 1.46367 88.8412 5.30081V12.1025C88.8412 12.1025 89.2525 17.0444 92.79 17.0444C98.5692 17.0444 100.723 16.9356 100.723 16.9356C100.723 16.9356 104.924 16.2716 104.924 11.8939V5.35958C104.924 5.35958 104.504 0.782034 100.297 0.782034ZM98.2166 13.2983C97.1295 13.2983 94.8143 13.2718 94.8143 13.2718C94.8143 13.2718 93.1337 13.4041 93.1337 11.1799C93.1337 8.6473 93.2542 5.99127 93.2542 5.99127C93.2542 5.99127 93.1396 4.29011 95.1198 4.29011H98.7954C99.3128 4.30642 99.8013 4.5327 100.148 4.91683C100.495 5.30096 100.671 5.80982 100.635 6.32621C100.635 8.32117 100.502 11.2064 100.502 11.2064C100.502 11.2064 100.852 13.2865 98.2166 13.2865M130.242 0.752657H109.96C107.865 0.752657 107.657 2.10711 107.657 2.7153V16.8974L111.861 16.9562C111.861 16.9562 111.846 12.0349 111.846 11.3562C111.846 10.4748 112.995 10.4542 112.995 10.4542H116.756V7.48088H112.936C111.761 7.48088 111.761 6.79336 111.761 6.79336V4.32243H122.259V16.9562H126.431V4.38119C126.431 4.38119 130.251 4.48108 133.662 4.38119C133.098 2.26283 131.546 0.746777 130.254 0.746777" fill="#141414"/>
</svg>
