<svg xmlns="http://www.w3.org/2000/svg" width="151" height="31" viewBox="0 0 151 31" fill="none">
  <path d="M0.0583496 0.41748V29.9174H15.7689V18.5222H11.9284V13.8704H15.7689V9.96365C15.7689 7.1224 18.0721 4.81914 20.9134 4.81914H24.9283V9.00219H22.0554C21.1526 9.00219 20.4207 9.73411 20.4207 10.6369V13.8704H24.8562L24.2432 18.5223H20.4207V29.9174H29.5583V0.41748H0.0583496Z" fill="white"/>
  <rect x="40" y="0.41748" width="30" height="30" fill="white"/>
  <path d="M47.318 4.89783C48.6691 4.89893 49.7835 6.01489 49.7805 7.37276C49.7773 8.79458 48.5974 9.8662 47.3013 9.83533C45.9868 9.86193 44.8315 8.76396 44.8318 7.36337C44.8318 6.00498 45.9505 4.89679 47.318 4.89783Z" fill="#2699FB"/>
  <path d="M48.7536 25.4342H45.8587C45.483 25.4342 45.1785 25.1296 45.1785 24.7539V12.4044C45.1785 12.0287 45.483 11.7241 45.8587 11.7241H48.7536C49.1293 11.7241 49.4338 12.0287 49.4338 12.4044V24.754C49.4338 25.1296 49.1293 25.4342 48.7536 25.4342Z" fill="#2699FB"/>
  <path d="M65.4187 16.0618C65.4187 13.4729 63.3199 11.374 60.7309 11.374H59.9884C58.572 11.374 57.3206 12.0808 56.5679 13.161C56.4858 13.2787 56.4098 13.401 56.34 13.5272C56.3159 13.5236 56.3016 13.5217 56.3013 13.5224V12.0065C56.3013 11.8506 56.1749 11.7241 56.0188 11.7241H52.4072C52.2512 11.7241 52.1248 11.8505 52.1248 12.0065V25.1519C52.1248 25.3078 52.2511 25.4343 52.4071 25.4343L56.0974 25.4353C56.2534 25.4353 56.3799 25.3088 56.3799 25.1528V17.5584C56.3799 16.2456 57.427 15.1556 58.7396 15.1408C59.4097 15.1332 60.0172 15.4017 60.4551 15.8398C60.8872 16.2717 61.1543 16.8687 61.1543 17.528V25.1538C61.1543 25.3097 61.2807 25.4361 61.4366 25.4362L65.1361 25.4371C65.2921 25.4372 65.4186 25.3107 65.4186 25.1547L65.4187 16.0618Z" fill="#2699FB"/>
  <rect x="81" y="0.41748" width="30" height="30" fill="white"/>
  <path d="M85.0913 22.285C87.0546 23.5302 89.3835 24.2508 91.88 24.2508C98.8936 24.2508 104.579 18.5648 104.579 11.5518C104.579 11.3767 104.575 11.2029 104.569 11.0297C104.822 10.83 106.391 9.57249 106.776 8.76406C106.776 8.76406 105.502 9.29357 104.255 9.4183C104.252 9.4183 104.249 9.41888 104.247 9.41888C104.247 9.41888 104.249 9.41766 104.253 9.41461C104.368 9.33784 105.975 8.24434 106.192 6.94143C106.192 6.94143 105.291 7.42245 104.029 7.84327C103.82 7.91265 103.602 7.98088 103.376 8.04412C102.563 7.17608 101.407 6.63428 100.123 6.63428C97.6619 6.63428 95.6673 8.62833 95.6673 11.088C95.6673 11.4351 95.7072 11.7729 95.7828 12.0973C95.4388 12.0832 90.2005 11.7895 86.637 7.47398C86.637 7.47398 84.5072 10.3815 87.9062 13.3713C87.9062 13.3713 86.8729 13.3301 85.9815 12.7975C85.9815 12.7975 85.6541 16.3199 89.5033 17.2205C89.5033 17.2205 88.7459 17.5074 87.5376 17.3029C87.5376 17.3029 88.2133 20.149 91.6332 20.415C91.6332 20.415 88.9289 22.8579 85.0901 22.2847L85.0913 22.285Z" fill="#2699FB"/>
  <rect x="121" y="0.41748" width="30" height="30" fill="white"/>
  <path d="M138.541 19.3018C138.54 19.1917 138.508 19.0772 138.467 18.9742C138.413 18.8389 138.296 18.7716 138.15 18.7574C137.979 18.7406 137.841 18.8098 137.717 18.9199C137.667 18.9632 137.645 19.028 137.645 19.028L137.647 22.5215V22.6076C137.647 22.6076 137.677 22.6477 137.681 22.6529C137.782 22.7623 137.9 22.849 138.051 22.8801C138.3 22.9313 138.475 22.8277 138.524 22.5972C138.536 22.5396 138.543 22.4801 138.543 22.4212C138.544 21.381 138.546 20.3414 138.541 19.3018ZM138.541 19.3018C138.54 19.1917 138.508 19.0772 138.467 18.9742C138.413 18.8389 138.296 18.7716 138.15 18.7574C137.979 18.7406 137.841 18.8098 137.717 18.9199C137.667 18.9632 137.645 19.028 137.645 19.028L137.647 22.5215V22.6076C137.647 22.6076 137.677 22.6477 137.681 22.6529C137.782 22.7623 137.9 22.849 138.051 22.8801C138.3 22.9313 138.475 22.8277 138.524 22.5972C138.536 22.5396 138.543 22.4801 138.543 22.4212C138.544 21.381 138.546 20.3414 138.541 19.3018ZM142.453 14.0333C138.318 13.9446 134.182 13.9446 130.047 14.0333C128.613 14.0637 127.466 15.2367 127.466 16.6718V23.1293C127.466 24.5651 128.613 25.738 130.047 25.7684C134.182 25.8571 138.318 25.8571 142.453 25.7684C143.888 25.738 145.035 24.5651 145.035 23.1293V16.6718C145.035 15.2367 143.888 14.0637 142.453 14.0333ZM131.261 23.7178H130.069V16.9773H128.835V15.8497H132.498V16.9747H131.261V23.7178ZM135.528 20.9201V23.7184H134.473V23.0788C134.435 23.1196 134.413 23.1416 134.393 23.1643C134.166 23.4206 133.908 23.6342 133.579 23.7475C133.419 23.8025 133.254 23.8213 133.085 23.7922C132.854 23.754 132.7 23.6213 132.607 23.4116C132.52 23.218 132.498 23.0109 132.497 22.8024C132.495 22.0322 132.496 17.9554 132.496 17.9159H133.549C133.551 17.9515 133.555 20.878 133.555 22.3053C133.555 22.383 133.556 22.4626 133.572 22.5383C133.611 22.7299 133.757 22.8121 133.942 22.7448C134.154 22.6672 134.316 22.5209 134.452 22.3454C134.472 22.3202 134.472 22.2749 134.472 22.2386V17.9094L135.528 17.9068C135.528 17.9069 135.528 19.9504 135.528 20.9201ZM139.545 23.1591C139.404 23.5838 139.093 23.7999 138.647 23.7954C138.283 23.7922 137.989 23.6478 137.746 23.3844C137.719 23.3552 137.644 23.2756 137.644 23.2756V23.7171H136.586V15.849H137.644C137.644 16.6866 137.644 18.4389 137.644 18.4389C137.644 18.4389 137.703 18.3198 137.758 18.2583C137.922 18.0751 138.121 17.9334 138.367 17.8712C138.773 17.7696 139.241 17.8952 139.464 18.3697C139.595 18.6499 139.632 18.949 139.632 19.2532C139.634 20.353 139.634 21.4528 139.632 22.5526C139.632 22.7584 139.61 22.9617 139.545 23.1591ZM143.452 22.9378C143.268 23.4744 142.89 23.7722 142.334 23.8537C141.99 23.9042 141.649 23.8971 141.326 23.7508C140.884 23.5515 140.633 23.1909 140.526 22.7319C140.476 22.5183 140.451 22.2944 140.449 22.0749C140.44 21.2134 140.444 20.3512 140.446 19.4896C140.447 19.039 140.554 18.6235 140.863 18.2784C141.215 17.8842 141.666 17.7373 142.18 17.7703C142.335 17.78 142.493 17.8053 142.64 17.8538C143.14 18.0182 143.408 18.393 143.512 18.8902C143.553 19.0818 143.567 19.2805 143.571 19.4766C143.579 19.9362 143.567 20.9493 143.567 20.9493H141.542V22.4012C141.542 22.662 141.753 22.8731 142.014 22.8731C142.274 22.8731 142.485 22.662 142.485 22.4012V21.6548H143.573C143.573 21.6548 143.589 22.5358 143.452 22.9378ZM142.485 19.2339C142.485 18.9737 142.274 18.762 142.014 18.762C141.753 18.762 141.542 18.9737 141.542 19.2339V20.0488H142.485V19.2339ZM138.467 18.9742C138.413 18.8389 138.296 18.7716 138.15 18.7574C137.979 18.7406 137.841 18.8098 137.717 18.9199C137.667 18.9632 137.645 19.028 137.645 19.028L137.647 22.5215V22.6076C137.647 22.6076 137.677 22.6477 137.681 22.6529C137.782 22.7623 137.9 22.849 138.051 22.8801C138.3 22.9313 138.475 22.8277 138.524 22.5972C138.536 22.5396 138.543 22.4801 138.543 22.4212C138.544 21.381 138.546 20.3414 138.541 19.3018C138.54 19.1917 138.508 19.0772 138.467 18.9742Z" fill="#2699FB"/>
  <path d="M141.171 6.56641L141.171 12.408H140.088L140.089 11.7804C139.97 11.8983 139.868 12.0084 139.755 12.1073C139.556 12.2826 139.331 12.4133 139.067 12.4649C138.663 12.5441 138.318 12.4161 138.189 11.9969C138.146 11.8573 138.12 11.7068 138.119 11.561V6.56641H139.193V11.0213C139.193 11.0803 139.198 11.14 139.208 11.1979C139.241 11.3814 139.376 11.4678 139.553 11.4066C139.769 11.332 139.933 11.1828 140.073 11.007C140.092 10.9818 140.089 10.935 140.089 10.8982V6.56641H141.171Z" fill="#2699FB"/>
  <path d="M132.218 7.58146C131.983 6.591 131.491 4.50012 131.491 4.50012H130.259C130.259 4.50012 131.205 7.63874 131.629 9.03849C131.644 9.0891 131.651 9.14407 131.651 9.19708L131.65 12.4067H132.786L132.786 9.19708C132.786 9.14407 132.793 9.0891 132.808 9.03849C133.231 7.63874 134.178 4.50012 134.178 4.50012H132.946C132.946 4.50012 132.453 6.591 132.218 7.58146Z" fill="#2699FB"/>
  <path d="M135.66 6.42017C134.804 6.42017 134.11 7.11409 134.11 7.97009V11.0033C134.11 11.8593 134.804 12.5533 135.66 12.5533C136.516 12.5533 137.21 11.8593 137.21 11.0033V7.97009C137.21 7.11409 136.516 6.42017 135.66 6.42017ZM136.107 11.0646C136.107 11.3112 135.907 11.5118 135.66 11.5118C135.414 11.5118 135.213 11.3112 135.213 11.0646V7.90879C135.213 7.66216 135.414 7.46156 135.66 7.46156C135.907 7.46156 136.107 7.66223 136.107 7.90879V11.0646Z" fill="#2699FB"/>
</svg>