<svg xmlns="http://www.w3.org/2000/svg" width="56" height="40" viewBox="0 0 56 40" fill="none">
  <path d="M38.9892 39.6089C39.817 39.6222 40.6448 39.5899 41.469 39.5119C44.7009 39.0506 46.7311 37.6932 48.6644 34.1352C49.6545 32.1579 49.6016 29.0229 49.6016 29.0229L49.631 23.4993C49.631 23.4993 49.5634 20.5613 49.2255 19.0922C48.8877 17.6232 48.3059 16.4186 46.9426 14.9319C46.4108 14.3638 45.7756 13.9021 45.0711 13.5715C44.1883 13.1468 43.2494 12.85 42.2828 12.6901C40.708 12.4139 36.2274 12.4727 36.2274 12.4727L24.8042 12.3963L16.8331 12.552C15.7697 12.5442 14.7066 12.5923 13.6482 12.696C12.7574 12.7496 11.9089 13.0944 11.2331 13.6773C10.5632 14.153 10.0645 14.832 9.8111 15.6135C9.49378 16.7212 9.56136 19.3361 9.56136 19.3361C9.56136 19.3361 9.69063 23.7931 9.7112 24.4366C9.7112 24.8391 9.8728 24.9625 9.9815 24.9978C10.0902 25.033 12.7551 25.3386 12.7609 25.3503V25.2945C13.1755 24.3414 14.094 23.7052 15.132 23.6521C16.9213 23.5464 36.6388 23.2467 38.2518 23.2114C38.7808 23.1694 39.3124 23.2488 39.806 23.4435C40.0449 23.5724 40.2317 23.7801 40.3349 24.0311C40.5141 24.416 40.5758 25.7176 40.5758 25.7176C40.5758 25.7176 40.5494 27.4805 40.5494 27.9829C40.5494 28.6557 40.2056 30.5948 37.8522 30.5948C36.6241 30.636 13.9538 30.395 13.9538 30.395C13.0242 30.4069 12.1031 30.2175 11.2537 29.8397C8.99431 28.6469 8.27154 26.9222 8.23041 23.2143C8.23041 20.6582 8.24803 14.6351 8.24803 14.6351C8.24803 14.6351 8.13051 11.8616 10.052 10.0547C11.5211 8.65025 14.6501 8.72076 15.0879 8.73839H15.1995C15.9634 8.73839 23.626 8.73839 26.3643 8.662C29.2407 8.58855 43.8136 9.0087 44.5452 9.04395C45.306 9.06161 46.0532 9.2504 46.7311 9.59632C47.476 10.0014 48.1491 10.5265 48.7231 11.1506C49.7528 12.3817 50.4542 13.8533 50.7622 15.4284C51.0207 17.1208 51.3498 23.185 51.3498 23.185C51.3498 23.185 51.5026 29.5048 50.9149 31.8024C50.5154 33.3684 50.0335 35.6395 47.9769 37.5963C47.6037 37.9782 47.2365 38.3602 47.2365 38.3602V38.3808C47.21 38.4425 47.1483 38.4924 47.2365 38.701C47.4917 39.1009 47.8671 39.4095 48.3089 39.5824C48.6614 39.7499 49.3196 39.4679 49.9718 39.0536C52.0285 37.6727 53.1332 36.5944 54.1792 34.4202C55.5395 31.5556 55.6129 27.642 55.6129 27.1249C55.6129 26.6078 55.5601 17.4293 55.5601 17.4293C55.5601 17.4293 55.6776 13.7126 55.2663 11.3327C54.8655 9.21025 54.0281 7.19422 52.8071 5.41248C51.9841 4.21165 50.8593 3.24892 49.5458 2.62129C48.9923 2.34071 48.4176 2.10396 47.827 1.91321C45.1827 1.03179 41.9685 1.03179 39.3066 0.949521C36.6447 0.867255 25.3154 0.790865 25.3154 0.790865C25.3154 0.790865 17.2827 0.840812 13.9626 1.00828C8.70931 1.26683 7.38717 1.36673 5.00732 2.37449C2.62747 3.38225 0.999771 5.77386 0.473852 7.73063C-0.0520663 9.68739 0.121281 12.9545 0.121281 12.9545L0.22999 26.7401C0.190348 28.1999 0.252195 29.6607 0.415089 31.1119C0.791163 33.9854 1.29652 35.2634 1.79599 36.0303C2.49942 37.1524 3.50017 38.0576 4.68707 38.6452L4.76052 38.6804C5.93576 39.2416 9.42621 39.6383 11.1332 39.6441C13.9891 39.7587 21.8426 39.744 23.9022 39.7499L38.9892 39.6089Z" fill="#141414"/>
</svg>