<svg xmlns="http://www.w3.org/2000/svg" width="41" height="40" viewBox="0 0 41 40" fill="none">
  <path d="M3.15474 2.76995C0.0290339 6.01662 0.66878 9.46551 0.66878 19.943C0.66878 28.6439 -0.849287 37.3664 7.09584 39.4198C9.57683 40.0578 31.5593 40.0578 34.037 39.4164C37.345 38.5629 40.0364 35.8798 40.4044 31.2012C40.4557 30.5481 40.4557 9.34953 40.4027 8.68329C40.0116 3.6997 36.9439 0.827632 32.9017 0.245916C31.9753 0.111674 31.7896 0.0718985 27.0365 0.0635861C10.1767 0.0718985 6.48095 -0.678863 3.15474 2.76995Z" fill="#2699FB"/>
  <path d="M20.5531 5.26588C14.5355 5.26588 8.82111 4.73061 6.63844 10.3323C5.7368 12.6459 5.86778 15.6506 5.86778 19.953C5.86778 23.7284 5.74675 27.2766 6.63844 29.572C8.81613 35.177 14.5769 34.6401 20.5499 34.6401C26.3123 34.6401 32.2538 35.24 34.4629 29.572C35.3662 27.2352 35.2336 24.2753 35.2336 19.953C35.2336 14.2154 35.5501 10.5113 32.7675 7.73032C29.9501 4.91286 26.1399 5.26588 20.5465 5.26588H20.5531ZM19.2373 7.91265C31.7897 7.89277 33.3874 6.49729 32.5056 25.8829C32.1924 32.7391 26.9719 31.9868 20.5548 31.9868C8.8542 31.9868 8.51782 31.6519 8.51782 19.9464C8.51782 8.10485 9.44586 7.91926 19.2373 7.90931V7.91265ZM28.3922 10.3505C27.4193 10.3505 26.6305 11.1394 26.6305 12.1122C26.6305 13.0851 27.4193 13.874 28.3922 13.874C29.3651 13.874 30.1539 13.0851 30.1539 12.1122C30.1539 11.1394 29.3651 10.3505 28.3922 10.3505ZM20.5531 12.4105C16.3884 12.4105 13.0124 15.7882 13.0124 19.953C13.0124 24.1178 16.3884 27.4938 20.5531 27.4938C24.718 27.4938 28.0923 24.1178 28.0923 19.953C28.0923 15.7882 24.718 12.4105 20.5531 12.4105ZM20.5531 15.0573C27.0249 15.0573 27.0332 24.8487 20.5531 24.8487C14.083 24.8487 14.0731 15.0573 20.5531 15.0573Z" fill="white"/>
</svg>