<svg xmlns="http://www.w3.org/2000/svg" width="69" height="12" viewBox="0 0 69 12" fill="none">
<g id="Group 780">
<path id="star" d="M10.1934 4.73713L6.97436 4.24542L5.53151 1.17212C5.42374 0.942626 5.04721 0.942626 4.93944 1.17212L3.49703 4.24542L0.27799 4.73713C0.0135905 4.77771 -0.0919947 5.09926 0.0934338 5.28906L2.43201 7.68609L1.87922 11.0748C1.83515 11.344 2.12268 11.546 2.36046 11.4138L5.23569 9.82484L8.11092 11.4143C8.34653 11.5452 8.63667 11.3471 8.59217 11.0753L8.03937 7.68653L10.378 5.28949C10.5634 5.09927 10.4574 4.77771 10.1934 4.73713Z" fill="#FFC107"/>
<path id="star_2" d="M24.5914 4.73713L21.3724 4.24542L19.9295 1.17212C19.8217 0.942626 19.4452 0.942626 19.3375 1.17212L17.895 4.24542L14.676 4.73713C14.4116 4.77771 14.306 5.09926 14.4914 5.28906L16.83 7.68609L16.2772 11.0748C16.2332 11.344 16.5207 11.546 16.7585 11.4138L19.6337 9.82484L22.5089 11.4143C22.7445 11.5452 23.0347 11.3471 22.9902 11.0753L22.4374 7.68653L24.776 5.28949C24.9614 5.09927 24.8554 4.77771 24.5914 4.73713Z" fill="#FFC107"/>
<path id="star_3" d="M38.9894 4.73713L35.7704 4.24542L34.3276 1.17212C34.2198 0.942626 33.8433 0.942626 33.7355 1.17212L32.2931 4.24542L29.074 4.73713C28.8096 4.77771 28.7041 5.09926 28.8895 5.28906L31.2281 7.68609L30.6753 11.0748C30.6312 11.344 30.9187 11.546 31.1565 11.4138L34.0317 9.82484L36.907 11.4143C37.1426 11.5452 37.4327 11.3471 37.3882 11.0753L36.8354 7.68653L39.174 5.28949C39.3594 5.09927 39.2534 4.77771 38.9894 4.73713Z" fill="#FFC107"/>
<path id="star_4" d="M53.3875 4.73713L50.1684 4.24542L48.7256 1.17212C48.6178 0.942626 48.2413 0.942626 48.1335 1.17212L46.6911 4.24542L43.4721 4.73713C43.2077 4.77771 43.1021 5.09926 43.2875 5.28906L45.6261 7.68609L45.0733 11.0748C45.0292 11.344 45.3167 11.546 45.5545 11.4138L48.4298 9.82484L51.305 11.4143C51.5406 11.5452 51.8307 11.3471 51.7862 11.0753L51.2334 7.68653L53.572 5.28949C53.7574 5.09927 53.6514 4.77771 53.3875 4.73713Z" fill="#FFC107"/>
<path id="star_5" d="M67.7855 4.73713L64.5664 4.24542L63.1236 1.17212C63.0158 0.942626 62.6393 0.942626 62.5315 1.17212L61.0891 4.24542L57.8701 4.73713C57.6057 4.77771 57.5001 5.09926 57.6855 5.28906L60.0241 7.68609L59.4713 11.0748C59.4272 11.344 59.7147 11.546 59.9525 11.4138L62.8278 9.82484L65.703 11.4143C65.9386 11.5452 66.2287 11.3471 66.1842 11.0753L65.6314 7.68653L67.97 5.28949C68.1555 5.09927 68.0494 4.77771 67.7855 4.73713Z" stroke="white"/>
</g>
</svg>