<svg xmlns="http://www.w3.org/2000/svg" width="18" height="18" viewBox="0 0 18 18" fill="none">
  <g clip-path="url(#clip0_1_1051)">
    <rect x="0.349609" y="0.407471" width="17" height="17" fill="#2699FB"/>
    <path d="M17.2434 15.8137L13.7371 12.3075C14.6934 11.0325 15.2246 9.54497 15.2246 7.84497C15.2246 3.70122 11.9309 0.407471 7.78711 0.407471C3.64336 0.407471 0.349609 3.70122 0.349609 7.84497C0.349609 11.9887 3.64336 15.2825 7.78711 15.2825C9.48711 15.2825 10.9746 14.7512 12.2496 13.795L15.7559 17.3012L17.2434 15.8137ZM2.47461 7.84497C2.47461 4.86997 4.81211 2.53247 7.78711 2.53247C10.7621 2.53247 13.0996 4.86997 13.0996 7.84497C13.0996 10.82 10.7621 13.1575 7.78711 13.1575C4.81211 13.1575 2.47461 10.82 2.47461 7.84497Z" fill="#2699FB"/>
  </g>
  <defs>
    <clipPath id="clip0_1_1051">
      <rect width="17" height="17" fill="white" transform="translate(0.349609 0.407471)"/>
    </clipPath>
  </defs>
</svg>