<svg xmlns="http://www.w3.org/2000/svg" width="151" height="30" viewBox="0 0 151 30" fill="none">
  <path d="M0 0V29.4999H15.7105V18.1047H11.87V13.4529H15.7105V9.54617C15.7105 6.70492 18.0138 4.40166 20.855 4.40166H24.87V8.58471H21.9971C21.0943 8.58471 20.3624 9.31663 20.3624 10.2194V13.453H24.7978L24.1848 18.1048H20.3624V29.4999H29.4999V0H0Z" fill="#2699FB"/>
  <rect x="39.9417" width="30" height="30" fill="#2699FB"/>
  <path d="M47.2596 4.48047C48.6108 4.48158 49.7251 5.59753 49.7222 6.9554C49.719 8.37722 48.539 9.44885 47.243 9.41797C45.9284 9.44457 44.7732 8.3466 44.7734 6.94602C44.7734 5.58762 45.8921 4.47943 47.2596 4.48047Z" fill="#C4E4FF"/>
  <path d="M48.6951 25.0167H45.8003C45.4246 25.0167 45.12 24.7121 45.12 24.3364V11.9869C45.12 11.6112 45.4246 11.3066 45.8003 11.3066H48.6951C49.0708 11.3066 49.3754 11.6112 49.3754 11.9869V24.3365C49.3753 24.7121 49.0708 25.0167 48.6951 25.0167Z" fill="#C4E4FF"/>
  <path d="M65.3604 15.6444C65.3604 13.0554 63.2616 10.9565 60.6725 10.9565H59.9301C58.5136 10.9565 57.2623 11.6633 56.5096 12.7435C56.4275 12.8613 56.3515 12.9835 56.2817 13.1098C56.2576 13.1061 56.2433 13.1043 56.2429 13.1049V11.589C56.2429 11.4331 56.1165 11.3066 55.9605 11.3066H52.3488C52.1929 11.3066 52.0664 11.433 52.0664 11.589V24.7345C52.0664 24.8904 52.1928 25.0168 52.3487 25.0169L56.0391 25.0178C56.1951 25.0178 56.3216 24.8913 56.3216 24.7353V17.1409C56.3216 15.8281 57.3686 14.7381 58.6813 14.7233C59.3514 14.7157 59.9589 14.9842 60.3967 15.4223C60.8288 15.8542 61.096 16.4512 61.096 17.1105V24.7363C61.096 24.8923 61.2224 25.0187 61.3783 25.0187L65.0778 25.0196C65.2338 25.0197 65.3602 24.8932 65.3602 24.7372L65.3604 15.6444Z" fill="#C4E4FF"/>
  <rect x="80.9417" width="30" height="30" fill="#2699FB"/>
  <path d="M85.033 21.8676C86.9963 23.1127 89.3252 23.8333 91.8217 23.8333C98.8352 23.8333 104.521 18.1473 104.521 11.1344C104.521 10.9593 104.517 10.7855 104.51 10.6122C104.764 10.4125 106.333 9.15501 106.717 8.34658C106.717 8.34658 105.443 8.87609 104.196 9.00082C104.194 9.00082 104.191 9.0014 104.188 9.0014C104.188 9.0014 104.191 9.00018 104.195 8.99713C104.31 8.92036 105.916 7.82686 106.134 6.52395C106.134 6.52395 105.233 7.00497 103.971 7.42579C103.762 7.49517 103.543 7.5634 103.318 7.62664C102.505 6.7586 101.348 6.2168 100.065 6.2168C97.6036 6.2168 95.6089 8.21085 95.6089 10.6705C95.6089 11.0176 95.6489 11.3554 95.7244 11.6798C95.3804 11.6657 90.1422 11.372 86.5786 7.0565C86.5786 7.0565 84.4488 9.96402 87.8478 12.9538C87.8478 12.9538 86.8146 12.9127 85.9231 12.38C85.9231 12.38 85.5957 15.9025 89.445 16.8031C89.445 16.8031 88.6876 17.09 87.4792 16.8854C87.4792 16.8854 88.155 19.7315 91.5748 19.9975C91.5748 19.9975 88.8706 22.4404 85.0317 21.8672L85.033 21.8676Z" fill="#C4E4FF"/>
  <rect x="120.942" width="30" height="30" fill="#2699FB"/>
  <path d="M138.483 18.8843C138.482 18.7742 138.45 18.6597 138.409 18.5568C138.355 18.4215 138.238 18.3542 138.092 18.3399C137.92 18.3231 137.783 18.3923 137.659 18.5024C137.609 18.5458 137.586 18.6105 137.586 18.6105L137.589 22.104V22.1901C137.589 22.1901 137.619 22.2303 137.623 22.2354C137.724 22.3448 137.842 22.4316 137.993 22.4626C138.241 22.5138 138.417 22.4102 138.465 22.1798C138.478 22.1222 138.485 22.0626 138.485 22.0037C138.486 20.9635 138.488 19.9239 138.483 18.8843ZM138.483 18.8843C138.482 18.7742 138.45 18.6597 138.409 18.5568C138.355 18.4215 138.238 18.3542 138.092 18.3399C137.92 18.3231 137.783 18.3923 137.659 18.5024C137.609 18.5458 137.586 18.6105 137.586 18.6105L137.589 22.104V22.1901C137.589 22.1901 137.619 22.2303 137.623 22.2354C137.724 22.3448 137.842 22.4316 137.993 22.4626C138.241 22.5138 138.417 22.4102 138.465 22.1798C138.478 22.1222 138.485 22.0626 138.485 22.0037C138.486 20.9635 138.488 19.9239 138.483 18.8843ZM142.394 13.6158C138.26 13.5271 134.124 13.5271 129.989 13.6158C128.554 13.6463 127.407 14.8192 127.407 16.2543V22.7119C127.407 24.1476 128.554 25.3205 129.989 25.3509C134.124 25.4396 138.26 25.4396 142.394 25.3509C143.83 25.3205 144.977 24.1476 144.977 22.7119V16.2543C144.977 14.8193 143.83 13.6463 142.394 13.6158ZM131.203 23.3003H130.011V16.5599H128.776V15.4323H132.44V16.5573H131.203V23.3003ZM135.47 20.5026V23.3009H134.414V22.6614C134.376 22.7021 134.355 22.7242 134.335 22.7468C134.108 23.0032 133.85 23.2168 133.521 23.33C133.361 23.3851 133.195 23.4038 133.027 23.3747C132.796 23.3365 132.641 23.2038 132.548 22.9941C132.461 22.8006 132.439 22.5934 132.439 22.385C132.436 21.6147 132.437 17.5379 132.437 17.4984H133.491C133.493 17.534 133.496 20.4605 133.497 21.8878C133.497 21.9655 133.498 22.0451 133.513 22.1209C133.552 22.3125 133.699 22.3947 133.884 22.3273C134.096 22.2497 134.258 22.1034 134.394 21.928C134.414 21.9027 134.414 21.8574 134.414 21.8212V17.4919L135.47 17.4893C135.47 17.4894 135.47 19.5329 135.47 20.5026ZM139.487 22.7416C139.346 23.1663 139.035 23.3825 138.588 23.3779C138.225 23.3747 137.931 23.2304 137.688 22.9669C137.661 22.9378 137.586 22.8581 137.586 22.8581V23.2996H136.528V15.4315H137.586C137.586 16.2692 137.586 18.0214 137.586 18.0214C137.586 18.0214 137.645 17.9023 137.699 17.8408C137.863 17.6576 138.063 17.5159 138.309 17.4538C138.714 17.3521 139.182 17.4777 139.405 17.9522C139.537 18.2325 139.573 18.5315 139.573 18.8358C139.575 19.9355 139.575 21.0353 139.574 22.1351C139.573 22.341 139.552 22.5443 139.487 22.7416ZM143.393 22.5203C143.21 23.0569 142.831 23.3547 142.276 23.4363C141.932 23.4867 141.59 23.4796 141.267 23.3333C140.825 23.134 140.575 22.7734 140.467 22.3145C140.418 22.1009 140.393 21.8769 140.39 21.6575C140.382 20.7959 140.386 19.9337 140.388 19.0721C140.388 18.6216 140.496 18.206 140.805 17.861C141.157 17.4668 141.607 17.3198 142.122 17.3528C142.277 17.3625 142.435 17.3878 142.582 17.4363C143.082 17.6008 143.349 17.9755 143.454 18.4727C143.494 18.6643 143.509 18.863 143.512 19.0591C143.521 19.5187 143.509 20.5318 143.509 20.5318H141.484V21.9837C141.484 22.2446 141.695 22.4556 141.956 22.4556C142.216 22.4556 142.427 22.2446 142.427 21.9837V21.2374H143.515C143.515 21.2373 143.531 22.1183 143.393 22.5203ZM142.427 18.8164C142.427 18.5562 142.216 18.3445 141.956 18.3445C141.695 18.3445 141.484 18.5562 141.484 18.8164V19.6314H142.427V18.8164ZM138.409 18.5568C138.355 18.4215 138.238 18.3542 138.092 18.3399C137.92 18.3231 137.783 18.3923 137.659 18.5024C137.609 18.5458 137.586 18.6105 137.586 18.6105L137.589 22.104V22.1901C137.589 22.1901 137.619 22.2303 137.623 22.2354C137.724 22.3448 137.842 22.4316 137.993 22.4626C138.241 22.5138 138.417 22.4102 138.465 22.1798C138.478 22.1222 138.485 22.0626 138.485 22.0037C138.486 20.9635 138.488 19.9239 138.483 18.8843C138.482 18.7742 138.45 18.6597 138.409 18.5568Z" fill="#C4E4FF"/>
  <path d="M141.113 6.14893L141.112 11.9905H140.03L140.031 11.363C139.912 11.4808 139.809 11.5909 139.697 11.6898C139.498 11.8651 139.273 11.9958 139.009 12.0474C138.604 12.1266 138.26 11.9986 138.131 11.5794C138.088 11.4398 138.062 11.2893 138.061 11.1435V6.14893H139.135V10.6038C139.135 10.6628 139.14 10.7225 139.15 10.7804C139.183 10.964 139.318 11.0504 139.495 10.9891C139.71 10.9145 139.875 10.7653 140.014 10.5895C140.034 10.5644 140.031 10.5175 140.031 10.4807V6.14893H141.113Z" fill="#C4E4FF"/>
  <path d="M132.16 7.16386C131.925 6.1734 131.432 4.08252 131.432 4.08252H130.201C130.201 4.08252 131.147 7.22114 131.57 8.62089C131.585 8.6715 131.592 8.72646 131.592 8.77948L131.592 11.9891H132.728L132.727 8.77948C132.727 8.72646 132.734 8.6715 132.75 8.62089C133.173 7.22114 134.119 4.08252 134.119 4.08252H132.887C132.887 4.08252 132.395 6.1734 132.16 7.16386Z" fill="#C4E4FF"/>
  <path d="M135.602 6.00244C134.746 6.00244 134.052 6.69637 134.052 7.55237V10.5856C134.052 11.4416 134.746 12.1355 135.602 12.1355C136.458 12.1355 137.152 11.4416 137.152 10.5856V7.55237C137.152 6.69637 136.458 6.00244 135.602 6.00244ZM136.049 10.6468C136.049 10.8935 135.848 11.0941 135.602 11.0941C135.355 11.0941 135.155 10.8935 135.155 10.6468V7.49107C135.155 7.24444 135.355 7.04384 135.602 7.04384C135.848 7.04384 136.049 7.24451 136.049 7.49107V10.6468Z" fill="#C4E4FF"/>
</svg>