<svg xmlns="http://www.w3.org/2000/svg" width="41" height="40" viewBox="0 0 41 40" fill="none">
  <ellipse cx="20.0749" cy="19.949" rx="19.949" ry="19.949" fill="#2699FB"/>
  <path d="M32.2944 14.3367C31.4395 14.7157 30.5199 14.9721 29.5555 15.0866C30.5402 14.4967 31.2958 13.5632 31.6525 12.4491C30.7311 12.9957 29.7102 13.3922 28.6245 13.6059C27.7547 12.6795 26.5154 12.1006 25.1431 12.1006C22.5102 12.1006 20.3747 14.236 20.3747 16.869C20.3747 17.2427 20.417 17.6065 20.4988 17.9557C16.5359 17.7569 13.0222 15.8587 10.6702 12.9729C10.2598 13.677 10.0244 14.4967 10.0244 15.3704C10.0244 17.0244 10.8668 18.4845 12.1456 19.3394C11.3643 19.3148 10.6286 19.1004 9.98596 18.7423C9.98561 18.7626 9.98561 18.7828 9.98561 18.8028C9.98561 21.1132 11.6299 23.0402 13.8109 23.478C13.4112 23.5875 12.9891 23.6455 12.5549 23.6455C12.2469 23.6455 11.9486 23.616 11.6577 23.5605C12.2644 25.4545 14.025 26.8332 16.112 26.8719C14.4798 28.151 12.424 28.9131 10.1894 28.9131C9.80531 28.9131 9.42481 28.8907 9.05249 28.8463C11.1616 30.1997 13.6687 30.9888 16.3613 30.9888C25.1321 30.9888 29.9285 23.723 29.9285 17.4212C29.9285 17.2146 29.9239 17.0087 29.9146 16.8046C30.8471 16.1325 31.6554 15.2929 32.2944 14.3367Z" fill="white"/>
</svg>