<svg xmlns="http://www.w3.org/2000/svg" width="26" height="26" viewBox="0 0 26 26" fill="none">
  <path d="M4.57506 4.6798C6.85426 2.1934 9.75506 0.950195 13.2775 0.950195C16.7999 0.950195 19.7007 2.1934 21.9799 4.6798C24.4663 6.959 25.7095 9.8598 25.7095 13.3822C25.7095 16.9046 24.4663 19.8054 21.9799 22.0846C19.7007 24.571 16.7999 25.8142 13.2775 25.8142C9.75506 25.8142 6.85426 24.571 4.57506 22.0846C2.29586 19.5982 0.845459 16.9046 0.845459 13.3822C0.845459 9.8598 2.08866 6.959 4.57506 4.6798ZM14.9351 23.3278C15.7639 23.3278 16.7999 22.7062 18.0431 21.463C18.8719 20.0126 19.4935 18.5622 19.4935 17.1118C19.4935 16.0758 19.0791 15.247 18.4575 14.6254C17.6287 13.7966 16.7999 13.3822 15.7639 13.3822H13.6919C13.0703 13.3822 12.4487 13.175 11.8271 12.9678C11.4127 12.5534 11.2055 12.139 11.2055 11.5174C11.2055 11.103 11.4127 10.8958 11.6199 10.6886C11.8271 10.4814 12.2415 10.2742 12.4487 10.2742C12.6559 10.2742 13.2775 10.4814 13.4847 10.8958C13.8991 11.103 14.1063 11.3102 14.3135 11.3102C14.5207 11.3102 14.9351 11.3102 15.1423 11.103C15.3495 10.8958 15.3495 10.4814 15.3495 10.2742C15.3495 9.6526 14.9351 8.8238 14.3135 8.2022C14.9351 6.959 15.3495 5.7158 15.3495 4.2654C15.3495 4.0582 15.1423 3.851 14.9351 3.851C14.3135 3.6438 13.6919 3.4366 13.2775 3.4366C10.9983 3.6438 9.34066 4.0582 7.89026 5.0942C6.64706 6.1302 6.02546 7.5806 6.02546 9.2382C6.02546 10.8958 6.64706 12.139 7.68306 13.175C8.71906 14.211 10.1695 14.8326 11.6199 14.8326C11.6199 15.0398 11.6199 15.4542 11.6199 15.6614C11.6199 16.4902 11.8271 17.1118 12.4487 17.7334C12.8631 18.355 13.4847 18.7694 14.3135 18.9766V22.7062C14.3135 22.9134 14.3135 22.9134 14.5207 23.1206C14.7279 23.3278 14.7279 23.3278 14.9351 23.3278Z" fill="#2699FB"/>
</svg>