<svg xmlns="http://www.w3.org/2000/svg" width="52" height="52" viewBox="0 0 52 52" fill="none">
  <rect x="0.000244141" width="52" height="52" fill="white"/>
  <path d="M31.0954 32.8767C31.0943 32.686 31.0382 32.4874 30.9675 32.3089C30.8733 32.0744 30.6713 31.9578 30.4177 31.9331C30.1204 31.9039 29.8825 32.024 29.6671 32.2147C29.5807 32.2899 29.5414 32.4021 29.5414 32.4021L29.5459 38.4576V38.6068C29.5459 38.6068 29.5975 38.6763 29.6054 38.6853C29.7804 38.875 29.9846 39.0253 30.246 39.0791C30.6769 39.1678 30.981 38.9883 31.0651 38.5889C31.0864 38.489 31.0988 38.3858 31.0988 38.2837C31.101 36.4806 31.1044 34.6786 31.0954 32.8767ZM31.0954 32.8767C31.0943 32.686 31.0382 32.4874 30.9675 32.3089C30.8733 32.0744 30.6713 31.9578 30.4177 31.9331C30.1204 31.9039 29.8825 32.024 29.6671 32.2147C29.5807 32.2899 29.5414 32.4021 29.5414 32.4021L29.5459 38.4576V38.6068C29.5459 38.6068 29.5975 38.6763 29.6054 38.6853C29.7804 38.875 29.9846 39.0253 30.246 39.0791C30.6769 39.1678 30.981 38.9883 31.0651 38.5889C31.0864 38.489 31.0988 38.3858 31.0988 38.2837C31.101 36.4806 31.1044 34.6786 31.0954 32.8767ZM37.8757 23.7447C30.7094 23.591 23.5398 23.591 16.3724 23.7447C13.886 23.7974 11.8979 25.8305 11.8979 28.318V39.5111C11.8979 41.9997 13.886 44.0328 16.3724 44.0855C23.5398 44.2393 30.7094 44.2393 37.8757 44.0855C40.3632 44.0328 42.3514 41.9997 42.3514 39.5111V28.318C42.3514 25.8306 40.3632 23.7974 37.8757 23.7447ZM18.4773 40.5311H16.4106V28.8477H14.2709V26.8931H20.6215V28.8432H18.4773V40.5311ZM25.8736 35.6817V40.5322H24.0436V39.4236C23.9774 39.4943 23.9404 39.5324 23.9056 39.5717C23.5117 40.0161 23.0652 40.3863 22.4952 40.5826C22.217 40.678 21.9308 40.7106 21.638 40.6601C21.2386 40.5939 20.9704 40.3639 20.8088 40.0004C20.6585 39.6649 20.6203 39.3058 20.6192 38.9445C20.6147 37.6093 20.617 30.5429 20.617 30.4745H22.4425C22.4458 30.5362 22.4526 35.6088 22.4537 38.0828C22.4537 38.2175 22.4548 38.3555 22.4818 38.4867C22.5491 38.8188 22.8038 38.9613 23.1235 38.8447C23.4915 38.71 23.7721 38.4564 24.0077 38.1524C24.0425 38.1086 24.0425 38.0301 24.0425 37.9672V30.4633L25.8736 30.4588C25.8736 30.4589 25.8736 34.001 25.8736 35.6817ZM32.8356 39.5627C32.591 40.2988 32.0525 40.6735 31.2783 40.6657C30.6488 40.6601 30.1383 40.4099 29.7176 39.9532C29.6705 39.9027 29.5403 39.7647 29.5403 39.7647V40.5299H27.7069V26.8919H29.5403C29.5403 28.3438 29.5403 31.3811 29.5403 31.3811C29.5403 31.3811 29.6435 31.1746 29.7378 31.068C30.0216 30.7505 30.3672 30.5048 30.7936 30.3971C31.4971 30.2209 32.3083 30.4386 32.6943 31.261C32.922 31.7468 32.986 32.2652 32.986 32.7926C32.9893 34.6988 32.9893 36.6051 32.9871 38.5114C32.986 38.8682 32.949 39.2206 32.8356 39.5627ZM39.6069 39.1791C39.2894 40.1093 38.6331 40.6254 37.6703 40.7668C37.0734 40.8543 36.4822 40.842 35.9223 40.5884C35.1559 40.2428 34.7217 39.6179 34.5355 38.8223C34.4491 38.4521 34.4064 38.0639 34.4019 37.6835C34.3874 36.1901 34.3941 34.6956 34.3975 33.2022C34.3986 32.4213 34.5849 31.7009 35.12 31.1029C35.7304 30.4196 36.5113 30.1649 37.4033 30.2222C37.6715 30.239 37.9453 30.2827 38.2 30.3669C39.0673 30.6519 39.5307 31.3015 39.7124 32.1632C39.782 32.4954 39.8078 32.8398 39.8134 33.1798C39.828 33.9764 39.8078 35.7323 39.8078 35.7323H36.297V38.249C36.297 38.7012 36.6628 39.0669 37.115 39.0669C37.566 39.0669 37.9318 38.7012 37.9318 38.249V36.9553H39.8179C39.8179 36.9552 39.8459 38.4824 39.6069 39.1791ZM37.9318 32.759C37.9318 32.3079 37.566 31.941 37.115 31.941C36.6628 31.941 36.297 32.3079 36.297 32.759V34.1716H37.9318V32.759ZM30.9675 32.3089C30.8733 32.0744 30.6713 31.9578 30.4177 31.9331C30.1204 31.9039 29.8825 32.024 29.6671 32.2147C29.5807 32.2899 29.5414 32.4021 29.5414 32.4021L29.5459 38.4576V38.6068C29.5459 38.6068 29.5975 38.6763 29.6054 38.6853C29.7804 38.875 29.9846 39.0253 30.246 39.0791C30.6769 39.1678 30.981 38.9883 31.0651 38.5889C31.0864 38.489 31.0988 38.3858 31.0988 38.2837C31.101 36.4806 31.1044 34.6786 31.0954 32.8767C31.0943 32.686 31.0382 32.4874 30.9675 32.3089Z" fill="#2699FB"/>
  <path d="M35.6539 10.8018L35.6533 20.9272H33.777L33.7794 19.8394C33.5719 20.0437 33.3948 20.2346 33.2003 20.406C32.8553 20.7099 32.4647 20.9364 32.0077 21.0258C31.3061 21.163 30.7085 20.9412 30.4848 20.2146C30.4102 19.9726 30.3653 19.7117 30.3634 19.459V10.8018H32.2255V18.5235C32.2255 18.6258 32.2337 18.7293 32.2516 18.8296C32.3082 19.1478 32.5433 19.2976 32.8498 19.1913C33.2233 19.0621 33.5082 18.8035 33.7501 18.4987C33.7844 18.4552 33.7782 18.3739 33.7782 18.3101V10.8018H35.6539Z" fill="#2699FB"/>
  <path d="M20.1355 12.5612C19.7282 10.8444 18.875 7.22021 18.875 7.22021H16.7399C16.7399 7.22021 18.3803 12.6605 19.1138 15.0867C19.1402 15.1744 19.1523 15.2697 19.1523 15.3616L19.1515 20.925H21.1203L21.1195 15.3616C21.1195 15.2697 21.1317 15.1744 21.158 15.0867C21.8916 12.6605 23.5319 7.22021 23.5319 7.22021H21.3969C21.3969 7.22021 20.5427 10.8444 20.1355 12.5612Z" fill="#2699FB"/>
  <path d="M26.1017 10.5483C24.618 10.5483 23.4152 11.7511 23.4152 13.2349V18.4925C23.4152 19.9762 24.618 21.179 26.1017 21.179C27.5854 21.179 28.7882 19.9762 28.7882 18.4925V13.2349C28.7883 11.7511 27.5854 10.5483 26.1017 10.5483ZM26.877 18.5986C26.877 19.0261 26.5292 19.3738 26.1018 19.3738C25.6744 19.3738 25.3266 19.0261 25.3266 18.5986V13.1286C25.3266 12.7011 25.6744 12.3534 26.1018 12.3534C26.5292 12.3534 26.877 12.7012 26.877 13.1286V18.5986Z" fill="#2699FB"/>
</svg>